<svg width="110" height="110" viewBox="0 0 110 110" fill="none" xmlns="http://www.w3.org/2000/svg">
<g filter="url(#filter0_d_22_19)">
<circle cx="55" cy="44.9999" r="35" fill="white"/>
</g>
<mask id="path-2-inside-1_22_19" fill="white">
<path d="M89.2859 44.9999C89.6803 44.9999 90.0008 45.3198 89.9927 45.7141C89.8603 52.2036 87.9255 58.5337 84.398 63.9935C80.7412 69.6535 75.5283 74.1375 69.3853 76.907C63.2423 79.6766 56.4304 80.614 49.7677 79.6066C43.3405 78.6349 37.3157 75.8933 32.365 71.6956C32.0642 71.4405 32.0367 70.9886 32.2979 70.693C32.559 70.3974 33.0099 70.3702 33.3109 70.625C38.0554 74.6408 43.8259 77.2638 49.9812 78.1944C56.3721 79.1607 62.906 78.2615 68.7983 75.605C74.6906 72.9484 79.6908 68.6474 83.1984 63.2185C86.5766 57.9896 88.432 51.9286 88.5641 45.7141C88.5725 45.3198 88.8915 44.9999 89.2859 44.9999Z"/>
</mask>
<path d="M89.2859 44.9999C89.6803 44.9999 90.0008 45.3198 89.9927 45.7141C89.8603 52.2036 87.9255 58.5337 84.398 63.9935C80.7412 69.6535 75.5283 74.1375 69.3853 76.907C63.2423 79.6766 56.4304 80.614 49.7677 79.6066C43.3405 78.6349 37.3157 75.8933 32.365 71.6956C32.0642 71.4405 32.0367 70.9886 32.2979 70.693C32.559 70.3974 33.0099 70.3702 33.3109 70.625C38.0554 74.6408 43.8259 77.2638 49.9812 78.1944C56.3721 79.1607 62.906 78.2615 68.7983 75.605C74.6906 72.9484 79.6908 68.6474 83.1984 63.2185C86.5766 57.9896 88.432 51.9286 88.5641 45.7141C88.5725 45.3198 88.8915 44.9999 89.2859 44.9999Z" stroke="#9797C6" stroke-width="2" mask="url(#path-2-inside-1_22_19)"/>
<g clip-path="url(#clip0_22_19)">
<path d="M63.9464 43.225L48.2321 34.2832C46.9554 33.557 45 34.2617 45 36.0578V53.9371C45 55.5484 46.817 56.5195 48.2321 55.7117L63.9464 46.7742C65.3482 45.9793 65.3527 44.0199 63.9464 43.225Z" fill="#9797C6"/>
</g>
<defs>
<filter id="filter0_d_22_19" x="0" y="-6.10352e-05" width="110" height="110" filterUnits="userSpaceOnUse" color-interpolation-filters="sRGB">
<feFlood flood-opacity="0" result="BackgroundImageFix"/>
<feColorMatrix in="SourceAlpha" type="matrix" values="0 0 0 0 0 0 0 0 0 0 0 0 0 0 0 0 0 0 127 0" result="hardAlpha"/>
<feOffset dy="10"/>
<feGaussianBlur stdDeviation="10"/>
<feColorMatrix type="matrix" values="0 0 0 0 0.54902 0 0 0 0 0.541176 0 0 0 0 0.776471 0 0 0 0.25 0"/>
<feBlend mode="normal" in2="BackgroundImageFix" result="effect1_dropShadow_22_19"/>
<feBlend mode="normal" in="SourceGraphic" in2="effect1_dropShadow_22_19" result="shape"/>
</filter>
<clipPath id="clip0_22_19">
<rect width="20" height="22" fill="white" transform="translate(45 33.9999)"/>
</clipPath>
</defs>
</svg>
