<svg width="1147" height="379" viewBox="0 0 1147 379" fill="none" xmlns="http://www.w3.org/2000/svg">
<g filter="url(#filter0_d_22_0)">
<path d="M49.701 281H244.701V201.05H131.601V7.99998H49.701V281ZM379.403 284.9C455.453 284.9 513.953 226.4 513.953 144.5C513.953 62.6 455.453 4.09999 379.403 4.09999C303.353 4.09999 244.853 62.6 244.853 144.5C244.853 226.4 303.353 284.9 379.403 284.9ZM379.403 204.95C350.153 204.95 326.753 181.55 326.753 144.5C326.753 107.45 350.153 84.05 379.403 84.05C408.653 84.05 432.053 107.45 432.053 144.5C432.053 181.55 408.653 204.95 379.403 204.95ZM671.903 284.9C697.253 284.9 718.703 277.1 736.253 261.5H738.203L740.153 281H800.603V132.8H673.853V185.45H714.803C708.953 195.2 697.253 204.95 671.903 204.95C642.653 204.95 619.253 181.55 619.253 144.5C619.253 107.45 642.653 84.05 671.903 84.05C695.303 84.05 708.953 97.7 714.803 109.4H798.653C786.953 50.9 740.153 4.09999 671.903 4.09999C595.853 4.09999 537.353 62.6 537.353 144.5C537.353 226.4 595.853 284.9 671.903 284.9ZM962.499 284.9C1038.55 284.9 1097.05 226.4 1097.05 144.5C1097.05 62.6 1038.55 4.09999 962.499 4.09999C886.449 4.09999 827.949 62.6 827.949 144.5C827.949 226.4 886.449 284.9 962.499 284.9ZM962.499 204.95C933.249 204.95 909.849 181.55 909.849 144.5C909.849 107.45 933.249 84.05 962.499 84.05C991.749 84.05 1015.15 107.45 1015.15 144.5C1015.15 181.55 991.749 204.95 962.499 204.95Z" fill="white"/>
</g>
<defs>
<filter id="filter0_d_22_0" x="0.701172" y="0.0999756" width="1145.35" height="378.8" filterUnits="userSpaceOnUse" color-interpolation-filters="sRGB">
<feFlood flood-opacity="0" result="BackgroundImageFix"/>
<feColorMatrix in="SourceAlpha" type="matrix" values="0 0 0 0 0 0 0 0 0 0 0 0 0 0 0 0 0 0 127 0" result="hardAlpha"/>
<feOffset dy="45"/>
<feGaussianBlur stdDeviation="24.5"/>
<feColorMatrix type="matrix" values="0 0 0 0 0.54715 0 0 0 0 0.5425 0 0 0 0 0.775 0 0 0 0.25 0"/>
<feBlend mode="normal" in2="BackgroundImageFix" result="effect1_dropShadow_22_0"/>
<feBlend mode="normal" in="SourceGraphic" in2="effect1_dropShadow_22_0" result="shape"/>
</filter>
</defs>
</svg>
