<svg width="51" height="45" viewBox="0 0 51 45" fill="none" xmlns="http://www.w3.org/2000/svg">
<path d="M50.048 22.6585L36.6621 0H13.3892L10.3325 5.17443V3.45399H4.90579V14.3567L0 22.6585H4.29445L6.9454 44.3251H22.2666C22.4638 44.3176 22.6505 44.2328 22.7875 44.0885C22.9245 43.9441 23.001 43.7515 23.001 43.5512C23.001 43.3508 22.9245 43.1582 22.7875 43.0139C22.6505 42.8696 22.4638 42.7848 22.2666 42.7773H8.29292L5.83139 22.6585H18.4317C18.5343 22.6624 18.6365 22.6453 18.7324 22.6082C18.8282 22.571 18.9158 22.5146 18.9897 22.4424C19.0636 22.3701 19.1224 22.2835 19.1625 22.1876C19.2027 22.0918 19.2234 21.9887 19.2234 21.8846C19.2234 21.7804 19.2027 21.6773 19.1625 21.5815C19.1224 21.4856 19.0636 21.399 18.9897 21.3267C18.9158 21.2545 18.8282 21.1981 18.7324 21.161C18.6365 21.1238 18.5343 21.1067 18.4317 21.1106H2.69076L14.2535 1.54785H35.7978L47.3573 21.1106H31.6185C31.4213 21.1181 31.2345 21.203 31.0975 21.3473C30.9606 21.4916 30.8841 21.6842 30.8841 21.8846C30.8841 22.0849 30.9606 22.2775 31.0975 22.4218C31.2345 22.5661 31.4213 22.6509 31.6185 22.6585H35.885V24.9163C35.7781 24.9826 35.6898 25.0756 35.6285 25.1864C35.5672 25.2973 35.5351 25.4222 35.5351 25.5494C35.5351 25.6765 35.5672 25.8014 35.6285 25.9123C35.6898 26.0231 35.7781 26.1161 35.885 26.1824V27.8417C35.7781 27.9079 35.6898 28.0009 35.6285 28.1118C35.5672 28.2226 35.5351 28.3476 35.5351 28.4747C35.5351 28.6018 35.5672 28.7267 35.6285 28.8376C35.6898 28.9484 35.7781 29.0414 35.885 29.1077V30.768C35.7485 30.8525 35.643 30.9799 35.5845 31.1309C35.5259 31.2818 35.5176 31.4481 35.5609 31.6043C35.6041 31.7605 35.6964 31.8981 35.8238 31.9961C35.9512 32.0941 36.1067 32.147 36.2665 32.147C36.4264 32.147 36.5819 32.0941 36.7093 31.9961C36.8366 31.8981 36.929 31.7605 36.9722 31.6043C37.0154 31.4481 37.0071 31.2818 36.9486 31.1309C36.8901 30.9799 36.7846 30.8525 36.6481 30.768V29.1077C36.7552 29.0416 36.8438 28.9487 36.9053 28.8379C36.9667 28.7269 36.999 28.6019 36.999 28.4747C36.999 28.3475 36.9667 28.2224 36.9053 28.1115C36.8438 28.0006 36.7552 27.9077 36.6481 27.8417V26.1824C36.7552 26.1164 36.8438 26.0234 36.9053 25.9125C36.9667 25.8017 36.999 25.6766 36.999 25.5494C36.999 25.4221 36.9667 25.2971 36.9053 25.1862C36.8438 25.0753 36.7552 24.9824 36.6481 24.9163V22.6585H44.2188L41.7605 42.7773H27.7847C27.6822 42.7733 27.5799 42.7904 27.484 42.8276C27.3882 42.8647 27.3006 42.9211 27.2267 42.9934C27.1528 43.0656 27.094 43.1522 27.0539 43.2481C27.0137 43.3439 26.993 43.447 26.993 43.5512C26.993 43.6553 27.0137 43.7584 27.0539 43.8542C27.094 43.9501 27.1528 44.0367 27.2267 44.109C27.3006 44.1813 27.3882 44.2376 27.484 44.2748C27.5799 44.3119 27.6822 44.329 27.7847 44.3251H43.1059L45.7557 22.6585H50.048ZM6.43091 5.00184H8.80631V7.75562L6.43091 11.7744V5.00184Z" fill="#7C4032"/>
</svg>
